<?xml version="1.0" encoding="UTF-8"?>
<svg width="256px" height="256px" stroke-width="16" viewBox="0 0 24 24" fill="none" xmlns="http://www.w3.org/2000/svg" color="#000000">
<path d="M12 22V12M12 22L8 18M12 22L16 18M12 12L16 16M12 12L8 16M12 12C12 12 12 7.5 12 7C12 4.79086 10.2091 3 8 3C5.79086 3 4 4.79086 4 7C4 9.20914 5.79086 11 8 11H12M12 12H16C18.2091 12 20 10.2091 20 8C20 5.79086 18.2091 4 16 4C13.7909 4 12 5.79086 12 8V12Z" stroke="#000000" stroke-width="1.5" stroke-linecap="round" stroke-linejoin="round"></path>
</svg>
